<svg data-name="Layer 2" xmlns="http://www.w3.org/2000/svg" viewBox="0 0 116.093 40" width="116.093" height="40"><g data-name="Layer 1"><path d="M33.482 11.871a70 70 0 0 1 -2.675 7.014 50.333 50.333 0 0 1 -3.517 6.583q-1.985 3.13 -4.438 5.793c-2.452 2.663 -3.445 3.309 -5.422 4.597a26.167 26.167 0 0 1 -6.463 3.038q-3.492 1.105 -7.563 1.105 -0.701 -0.001 -1.323 -0.259a3.417 3.417 0 0 1 -1.088 -0.714 3.167 3.167 0 0 1 -0.725 -1.064 3.417 3.417 0 0 1 -0.259 -1.312V11.871h6.746v21.117q2.464 0 4.737 -1.064 2.273 -1.066 4.295 -2.819c2.021 -1.753 2.599 -2.496 3.752 -3.987a40 40 0 0 0 3.075 -4.586q1.352 -2.348 2.297 -4.608c0.945 -2.26 1.105 -2.858 1.415 -4.051h7.164Zm9.266 -5.766h-6.746V0h6.746zm0 33.844h-6.746V11.871h6.746zM80.148 30.467q0.001 0.962 -0.219 2.026c-0.221 1.064 -0.375 1.415 -0.69 2.117q-0.466 1.052 -1.208 2.013c-0.742 0.962 -1.088 1.208 -1.791 1.702s-1.512 0.889 -2.428 1.18q-1.375 0.442 -3.114 0.442H58.523q-0.962 0.001 -2.026 -0.219a10 10 0 0 1 -2.112 -0.69q-1.052 -0.466 -2.009 -1.208 -0.962 -0.742 -1.698 -1.795c-0.735 -1.052 -0.885 -1.515 -1.18 -2.44s-0.442 -1.97 -0.442 -3.13V0h6.746v30.467c0 0.829 0.259 1.496 0.778 1.985s1.168 0.742 1.945 0.742h12.173c0.845 0 1.512 -0.252 1.985 -0.753s0.714 -1.16 0.714 -1.973V21.324q0 -1.274 -0.753 -1.985 -0.755 -0.712 -1.945 -0.714H58.523v-6.754h12.173a10.25 10.25 0 0 1 4.138 0.909q1.052 0.466 2.009 1.208c0.957 0.742 1.205 1.092 1.686 1.791q0.725 1.052 1.168 2.428c0.443 1.376 0.442 1.958 0.442 3.118v9.142Zm35.945 -9.298q0.001 1.406 -0.495 3.026c-0.495 1.621 -0.862 2.086 -1.595 3.015 -0.737 0.925 -1.695 1.702 -2.882 2.325 -1.184 0.622 -2.627 0.937 -4.322 0.937H94.625v-6.416h12.173q1.376 -0.001 2.129 -0.845c0.753 -0.845 0.753 -1.259 0.753 -2.09q-0.001 -1.323 -0.845 -2.077c-0.845 -0.753 -1.24 -0.753 -2.037 -0.753H94.625q-1.376 0.001 -2.129 0.845c-0.753 0.845 -0.753 1.259 -0.753 2.09v9.43q0.001 1.352 0.845 2.105c0.845 0.753 1.259 0.753 2.09 0.753h12.122v6.443H94.625q-1.4 0.001 -3.022 -0.495 -1.622 -0.492 -3.011 -1.599c-1.388 -1.108 -1.698 -1.698 -2.325 -2.882q-0.932 -1.777 -0.932 -4.327V21.172c0 -0.937 0.163 -1.942 0.495 -3.026a9.083 9.083 0 0 1 1.595 -3.015c0.733 -0.925 1.695 -1.702 2.882 -2.325 1.184 -0.622 2.624 -0.937 4.322 -0.937h12.173q1.4 -0.001 3.022 0.495c1.622 0.495 2.086 0.862 3.011 1.599s1.698 1.698 2.325 2.882c0.622 1.188 0.932 2.627 0.932 4.327Z" style="stroke-width:0;fill:#1c75bc"/><path style="fill:#f26522;stroke-width:0" d="M108.246 33.513h6.787v6.435h-6.787z"/></g></svg>